# xmcd
#
# Track frame offsets: 
#        150
#        20906
#        38169
#        72183
#        94295
#        108384
#        140331
#        158217
#        180027
#        195797
#        218493
#        240775
#        261406
#        277574
#
# Disc length: 4381 seconds
#
# Revision: 0
# Processed by: cddbd v1.5.2PL0 Copyright (c) Steve Scherf et al.
# Submitted via: ExactAudioCopy v0.95b4
#
DISCID=ad111b0e
DTITLE=Bob Dylan - Blonde On Blonde
DYEAR=1966
DGENRE=Rock
TTITLE0=Rainy Day Women
TTITLE1=Pledging My Time
TTITLE2=Visions Of Johanna
TTITLE3=One Of Us Must Know (Sooner Or Later)
TTITLE4=I Want You
TTITLE5=Stuck Inside Of Mobile With The Memphis Blues Again
TTITLE6=Leopard-Skin Pill-Box Hat
TTITLE7=Just Like A Woman
TTITLE8=Most Likely You Go Your Way (And I'll Go Mine)
TTITLE9=Temporary Like Achilles
TTITLE10=Absolutely Sweet Marie
TTITLE11=4th Time Around
TTITLE12=Obviously Five Believers
TTITLE13=Sad-Eyed Lady Of The Lowlands
EXTD=
EXTT0=
EXTT1=
EXTT2=
EXTT3=
EXTT4=
EXTT5=
EXTT6=
EXTT7=
EXTT8=
EXTT9=
EXTT10=
EXTT11=
EXTT12=
EXTT13=
PLAYORDER=
